<svg width="38" height="38" viewBox="0 0 38 38" fill="none" xmlns="http://www.w3.org/2000/svg">
<path fill-rule="evenodd" clip-rule="evenodd" d="M11.8196 1.68775C13.6768 1.60225 14.269 1.58325 19 1.58325C23.731 1.58325 24.3232 1.60384 26.1788 1.68775C28.0345 1.77167 29.3012 2.06775 30.4095 2.49684C31.5701 2.93542 32.623 3.621 33.4938 4.50767C34.3805 5.37692 35.0645 6.42825 35.5015 7.59042C35.9322 8.69875 36.2267 9.96542 36.3122 11.8179C36.3977 13.6783 36.4167 14.2705 36.4167 18.9999C36.4167 23.7309 36.3961 24.3231 36.3122 26.1803C36.2283 28.0328 35.9322 29.2995 35.5015 30.4078C35.0645 31.5701 34.3794 32.6232 33.4938 33.4937C32.623 34.3804 31.5701 35.0644 30.4095 35.5014C29.3012 35.9321 28.0345 36.2266 26.182 36.3121C24.3232 36.3976 23.731 36.4166 19 36.4166C14.269 36.4166 13.6768 36.396 11.8196 36.3121C9.96709 36.2282 8.70043 35.9321 7.59209 35.5014C6.4298 35.0644 5.37673 34.3792 4.50618 33.4937C3.62011 32.624 2.93443 31.5714 2.49693 30.4094C2.06784 29.3011 1.77334 28.0344 1.68784 26.1819C1.60234 24.3215 1.58334 23.7293 1.58334 18.9999C1.58334 14.2689 1.60393 13.6768 1.68784 11.8211C1.77176 9.96542 2.06784 8.69875 2.49693 7.59042C2.93507 6.42838 3.62128 5.37583 4.50776 4.50609C5.37707 3.62021 6.42909 2.93454 7.59051 2.49684C8.69884 2.06775 9.96551 1.77325 11.818 1.68775H11.8196ZM26.0379 4.82275C24.2013 4.73884 23.6503 4.72142 19 4.72142C14.3498 4.72142 13.7988 4.73884 11.9621 4.82275C10.2632 4.90034 9.34168 5.18375 8.72734 5.42284C7.91509 5.7395 7.33401 6.11475 6.72443 6.72434C6.14658 7.2865 5.70188 7.97087 5.42293 8.72725C5.18384 9.34159 4.90043 10.2631 4.82284 11.962C4.73893 13.7987 4.72151 14.3497 4.72151 18.9999C4.72151 23.6502 4.73893 24.2012 4.82284 26.0378C4.90043 27.7367 5.18384 28.6583 5.42293 29.2726C5.70159 30.0278 6.14651 30.7134 6.72443 31.2755C7.28651 31.8534 7.97209 32.2983 8.72734 32.577C9.34168 32.8161 10.2632 33.0995 11.9621 33.1771C13.7988 33.261 14.3482 33.2784 19 33.2784C23.6518 33.2784 24.2013 33.261 26.0379 33.1771C27.7368 33.0995 28.6583 32.8161 29.2727 32.577C30.0849 32.2603 30.666 31.8851 31.2756 31.2755C31.8535 30.7134 32.2984 30.0278 32.5771 29.2726C32.8162 28.6583 33.0996 27.7367 33.1772 26.0378C33.2611 24.2012 33.2785 23.6502 33.2785 18.9999C33.2785 14.3497 33.2611 13.7987 33.1772 11.962C33.0996 10.2631 32.8162 9.34159 32.5771 8.72725C32.2604 7.915 31.8852 7.33392 31.2756 6.72434C30.7134 6.14653 30.029 5.70184 29.2727 5.42284C28.6583 5.18375 27.7368 4.90034 26.0379 4.82275ZM16.7754 24.369C18.0178 24.8862 19.4012 24.956 20.6893 24.5665C21.9774 24.177 23.0904 23.3524 23.8381 22.2335C24.5857 21.1146 24.9218 19.7708 24.7887 18.4317C24.6557 17.0925 24.0619 15.8411 23.1088 14.8912C22.5011 14.2839 21.7664 13.819 20.9575 13.5297C20.1486 13.2405 19.2857 13.1342 18.4308 13.2186C17.5759 13.3029 16.7503 13.5757 16.0135 14.0174C15.2767 14.4591 14.647 15.0586 14.1697 15.7728C13.6925 16.4871 13.3795 17.2983 13.2533 18.148C13.1272 18.9978 13.191 19.8649 13.4402 20.687C13.6894 21.5091 14.1178 22.2657 14.6945 22.9024C15.2712 23.5391 15.9819 24.04 16.7754 24.369ZM12.6698 12.6698C13.5011 11.8385 14.488 11.179 15.5741 10.7292C16.6603 10.2793 17.8244 10.0477 19 10.0477C20.1756 10.0477 21.3397 10.2793 22.4259 10.7292C23.512 11.179 24.4989 11.8385 25.3302 12.6698C26.1615 13.501 26.8209 14.4879 27.2708 15.5741C27.7207 16.6602 27.9522 17.8243 27.9522 18.9999C27.9522 20.1755 27.7207 21.3396 27.2708 22.4258C26.8209 23.5119 26.1615 24.4988 25.3302 25.3301C23.6513 27.0089 21.3743 27.9521 19 27.9521C16.6257 27.9521 14.3487 27.0089 12.6698 25.3301C10.991 23.6512 10.0478 21.3742 10.0478 18.9999C10.0478 16.6256 10.991 14.3486 12.6698 12.6698ZM29.9377 11.3809C30.1437 11.1866 30.3086 10.9529 30.4227 10.6937C30.5367 10.4345 30.5976 10.1551 30.6018 9.87189C30.6059 9.58873 30.5532 9.30762 30.4467 9.0452C30.3402 8.78278 30.1822 8.54439 29.9819 8.34415C29.7817 8.1439 29.5433 7.98587 29.2809 7.8794C29.0185 7.77294 28.7374 7.72021 28.4542 7.72434C28.171 7.72847 27.8916 7.78937 27.6324 7.90344C27.3732 8.0175 27.1395 8.18242 26.9452 8.38842C26.5672 8.78905 26.3603 9.32119 26.3684 9.87189C26.3764 10.4226 26.5987 10.9485 26.9882 11.3379C27.3776 11.7274 27.9035 11.9497 28.4542 11.9577C29.0049 11.9658 29.537 11.7588 29.9377 11.3809Z" fill="white"/>
</svg>
