<svg width="379" height="379" viewBox="0 0 379 379" fill="none" xmlns="http://www.w3.org/2000/svg">
<g clip-path="url(#clip0_9_176)">
<path d="M216.78 163.32C223.241 161.597 226.556 152.989 224.184 144.094C221.812 135.199 214.652 129.384 208.191 131.107C201.73 132.83 198.416 141.438 200.787 150.333C203.159 159.228 210.32 165.042 216.78 163.32Z" fill="#66AFEF"/>
</g>
<g clip-path="url(#clip1_9_176)">
<path d="M159.219 138.785C153.121 150.266 144.05 169.953 118.321 177.356C98.9416 182.921 69.8385 202.174 79.9628 239.057C83.6216 252.41 91.1062 253.045 90.1706 272.866C92.3425 279.384 109.049 303.115 141.126 314.613C155.527 319.777 142.078 301.811 163.346 300.942C173.704 300.942 156.162 309.632 189.626 308.847C219.13 283.328 187.621 167.179 184.062 149.915L159.219 138.785Z" fill="#5B2448"/>
<path d="M217.008 171.908C214.702 173.913 211.896 174.666 206.85 174.164C206.299 177.055 208.404 191.595 211.344 201.906C208.254 208.992 184.33 215.911 175.575 202.508C182.458 186.949 182.709 171.641 181.389 168.164L169.461 155.831C169.143 155.547 168.859 155.263 168.575 154.979C167.072 153.441 165.802 151.703 164.816 149.815C162.611 145.586 161.826 140.673 162.477 135.86C163.246 130.312 181.74 121.203 196.041 121.203C201.805 121.203 211.227 128.273 211.678 129.025C212.096 129.693 212.748 130.395 213.115 131.08C213.149 131.13 213.165 131.181 213.199 131.214C213.199 131.214 213.199 131.247 213.232 131.247C213.232 131.281 213.266 131.298 213.266 131.298V131.331C213.266 131.364 213.299 131.381 213.299 131.415V131.398C213.499 131.766 214.101 132.902 214.903 134.523C215.036 134.757 215.137 135.024 215.27 135.258C215.371 135.459 215.471 135.676 215.588 135.877C215.588 135.91 215.621 135.927 215.621 135.96C217.075 138.952 218.846 142.979 219.982 146.723C222.087 153.725 222.722 166.978 217.008 171.908V171.908Z" fill="#F1AA9F"/>
<path opacity="0.52" d="M195.49 165.29C198.719 165.29 201.337 162.671 201.337 159.441C201.337 156.21 198.719 153.592 195.49 153.592C192.26 153.592 189.642 156.21 189.642 159.441C189.642 162.671 192.26 165.29 195.49 165.29Z" fill="#E27280"/>
<path d="M194.404 141.442C192.282 143.865 192.165 146.974 193.468 147.859C194.771 148.745 197.411 147.391 199.082 144.617C200.769 141.793 201.203 138.935 200.017 138.2C198.764 137.431 196.509 139.035 194.404 141.442Z" fill="#5B2448"/>
<path d="M213.65 158.421C213.449 158.806 213.132 159.157 212.764 159.407C212.43 159.675 212.029 159.875 211.628 160.009C210.793 160.293 209.907 160.343 209.055 160.143C208.638 160.042 208.22 159.859 207.836 159.625C207.468 159.391 207.134 159.107 206.85 158.772C206.282 158.104 205.948 157.268 205.965 156.349C205.965 156.065 206.232 155.831 206.516 155.831C206.75 155.831 206.934 155.981 207.017 156.199V156.232C207.201 156.8 207.535 157.302 207.986 157.719C208.187 157.92 208.421 158.087 208.688 158.221C208.955 158.355 209.206 158.488 209.49 158.538C210.058 158.672 210.659 158.672 211.227 158.572C211.795 158.471 212.347 158.204 212.814 157.82L212.848 157.786C213.082 157.586 213.416 157.602 213.6 157.836C213.733 157.987 213.75 158.221 213.65 158.421V158.421Z" fill="#983C80"/>
<path d="M198.012 150.082C199.132 149.28 201.855 147.425 204.01 144.834C204.327 144.467 204.845 144.417 205.213 144.734C206.148 145.52 207.452 147.04 205.731 148.628C203.659 150.583 199.349 151.519 198.046 150.834C197.845 150.734 197.762 150.45 197.862 150.232C197.912 150.182 197.962 150.132 198.012 150.082V150.082Z" fill="#5B2448"/>
<path d="M215.855 138.918C214.719 139.487 213.082 140.005 210.559 140.707C210.125 140.857 209.907 141.325 210.058 141.743C210.058 141.776 210.091 141.793 210.091 141.793C210.526 142.929 211.528 144.467 213.616 143.514C215.721 142.545 216.707 140.623 216.557 139.152C216.507 138.868 216.139 138.751 215.855 138.918V138.918Z" fill="#5B2448"/>
<path d="M181.155 153.207C181.155 153.207 174.456 149.514 168.842 153.307C163.563 156.901 166.721 165.624 178.348 167.88C180.704 168.298 183.127 168.298 185.482 167.931L181.155 153.207Z" fill="#F1AA9F"/>
<path d="M201.905 172.794C200.418 172.326 198.614 171.256 197.678 172.526C196.592 174.03 198.614 180.214 207.385 182.286C206.883 178.526 206.65 175.501 206.833 174.181C204.327 173.512 204.829 173.696 201.905 172.794V172.794Z" fill="#5B2448"/>
<path d="M209.005 134.022C209.039 135.325 211.528 136.278 214.585 136.228C214.953 136.228 215.32 136.178 215.671 136.127C215.638 136.077 215.621 135.994 215.588 135.944C215.354 135.442 215.12 135.008 214.919 134.573C214.117 132.969 213.516 131.816 213.316 131.448V131.415C213.282 131.381 213.282 131.364 213.282 131.331C213.249 131.298 213.232 131.231 213.232 131.197C213.199 131.114 213.148 131.064 213.132 130.997C210.709 131.715 208.955 132.869 209.005 134.022V134.022Z" fill="#5B2448"/>
<path d="M212.798 152.238C212.53 152.271 212.296 152.087 212.28 151.82C212.246 151.636 212.363 151.452 212.514 151.352C213.483 150.801 214.468 149.246 214.335 148.494C214.301 148.344 214.251 148.21 213.95 148.127C212.363 147.792 210.96 146.857 210.074 145.536C209.941 145.302 210.024 145.018 210.258 144.885C210.492 144.751 210.776 144.834 210.91 145.035C211.695 146.155 212.864 146.907 214.184 147.191C214.786 147.291 215.22 147.742 215.304 148.327C215.487 149.581 214.184 151.469 213.015 152.154C212.931 152.221 212.864 152.238 212.798 152.238V152.238Z" fill="#5B2448"/>
<path d="M213.132 131.114C213.132 131.114 208.086 133.086 201.554 129.376C201.22 139.787 192.132 141.609 187.871 149.998C185.75 154.21 185.165 157.135 182.993 156.232C177.714 151.737 165.768 151.218 166.37 158.772C167.155 169 160.422 172.175 160.422 172.175L142.964 180.197C151.568 176.671 152.086 161.563 157.916 141.676C169.394 115.338 187.387 114.736 198.747 118.613C206.065 121.036 211.595 127.972 213.132 131.114Z" fill="#5B2448"/>
<path d="M217.008 171.908C214.702 173.913 211.896 174.666 206.85 174.164C207.452 167.078 222.722 166.978 217.008 171.908Z" fill="#F1AA9F"/>
<path d="M170.881 157.703C170.663 157.803 170.58 158.037 170.663 158.254C170.764 158.471 170.998 158.555 171.215 158.471C171.265 158.455 176.678 156.148 181.088 161.53C181.172 161.63 181.289 161.68 181.406 161.68C181.506 161.68 181.59 161.647 181.673 161.58C181.857 161.43 181.874 161.162 181.723 160.995C176.928 155.129 170.947 157.669 170.881 157.703V157.703Z" fill="#983C80"/>
<path d="M185.131 168.85C185.365 168.816 185.532 168.616 185.499 168.382C185.466 168.148 185.265 167.981 185.031 168.014C183.678 168.164 182.475 168.215 181.406 168.198C181.489 168.432 181.573 168.716 181.64 169.034H181.94C182.909 169.034 183.979 168.983 185.131 168.85Z" fill="#983C80"/>
<path d="M278.605 225.738C287.443 221.844 294.61 243.82 250.555 288.341C250.004 243.553 267.947 227.81 278.605 225.738V225.738Z" fill="#5B2448"/>
<path d="M347.788 198.664C347.788 198.664 347.37 204.162 346.953 206.686C340.537 244.639 318.05 304.619 282.632 305.789C219.163 307.878 193.585 192.648 221.485 199.834C231.108 202.307 266.56 243.152 276.951 251.976C281.295 246.461 291.704 235.381 296.832 228.077C309.028 210.697 312.203 202.007 317.883 187.467C322.093 176.688 325.785 174.147 332.084 171.758C346.719 166.192 352.466 167.58 348.139 174.248C353.552 173.496 353.685 179.128 350.294 182.119C354.303 181.116 355.64 186.799 351.63 189.64C353.719 189.64 356.475 195.489 347.788 198.664Z" fill="#F1AA9F"/>
<path d="M347.788 198.664C347.788 198.664 345.165 199.065 344.781 196.993C344.563 195.84 344.948 193.818 348.79 190.141C345.282 190.141 343.511 189.539 343.277 188.135C343.077 186.899 343.611 185.462 346.952 182.788C342.943 182.788 341.54 181.751 341.439 180.448C341.272 178.275 344.781 176.103 345.449 174.766C341.773 174.766 340.804 174.014 340.771 172.927C340.721 170.671 343.995 168.432 344.614 168.248C349.458 166.744 351.129 170.421 348.139 174.248C353.552 173.496 353.685 179.128 350.294 182.119C354.303 181.116 355.64 186.798 351.63 189.64C353.719 189.64 356.475 195.489 347.788 198.664Z" fill="#F1AA9F"/>
<path d="M352.9 188.453C348.473 189.706 344.48 190.208 343.745 188.553C343.461 187.918 343.478 187.3 343.778 186.665C344.697 184.643 348.122 182.988 350.311 182.119L350.327 182.102C350.745 181.735 351.096 181.334 351.413 180.899C351.447 180.866 351.463 180.832 351.48 180.782C351.146 180.899 350.661 181.066 350.077 181.3C348.289 181.818 346.485 182.186 344.998 182.186C344.246 182.186 343.578 182.086 343.043 181.868C342.475 181.634 342.108 181.25 341.924 180.732C341.205 178.643 344.664 176.136 348.155 174.248H348.139C348.155 174.214 348.172 174.198 348.189 174.164C348.49 173.78 348.723 173.395 348.924 173.028C348.957 172.978 348.974 172.927 349.007 172.861C348.74 172.994 348.456 173.145 348.172 173.295C345.883 174.081 343.31 174.666 342.007 174.081C341.623 173.897 341.373 173.629 341.256 173.228C340.704 171.223 344.096 168.917 345.933 167.931C345.432 167.964 344.881 168.064 344.279 168.231C343.995 168.315 343.711 168.415 343.427 168.515C341.74 169.752 339.936 171.557 340.454 173.446C340.637 174.081 341.038 174.549 341.657 174.833C342.124 175.05 342.709 175.133 343.361 175.133C343.962 175.133 344.63 175.05 345.315 174.916C341.907 177.139 340.487 179.178 341.105 180.983C341.356 181.735 341.89 182.286 342.692 182.62C343.327 182.888 344.096 183.005 344.948 183.005C345.499 183.005 346.1 182.955 346.719 182.871C345.115 183.79 343.611 184.96 342.993 186.314C342.609 187.166 342.592 188.035 342.96 188.888C343.411 189.924 344.58 190.458 346.451 190.458C347.069 190.458 347.771 190.408 348.556 190.291C347.186 191.194 346.117 192.213 345.182 193.5C343.895 195.255 343.711 197.26 344.731 198.397C344.981 198.681 345.482 199.065 346.334 199.182H346.451C346.618 199.182 348.957 199.182 351.129 197.01C351.163 196.976 351.196 196.926 351.229 196.893C348.456 198.48 346.268 198.848 345.365 197.828C344.63 197.01 344.831 195.405 345.867 194.001C347.203 192.196 348.807 190.926 351.229 189.79C351.246 189.79 351.246 189.773 351.263 189.773C351.397 189.74 351.547 189.706 351.697 189.673C351.681 189.673 351.664 189.673 351.647 189.673C352.132 189.289 352.549 188.871 352.9 188.453V188.453Z" fill="#983C80"/>
<path d="M326.821 206.686C326.754 206.686 326.671 206.669 326.604 206.619C326.403 206.502 326.353 206.235 326.47 206.051C329.578 201.021 330.714 195.138 331.198 192.614C331.248 192.33 331.298 192.096 331.332 191.912C332.418 186.765 333.704 183.707 334.623 181.484C335.208 180.08 335.675 178.961 335.926 177.791C336.06 177.156 336.076 176.32 335.341 175.986C333.604 175.2 328.525 177.423 323.129 184.659C322.995 184.843 322.728 184.877 322.544 184.743C322.36 184.609 322.327 184.342 322.46 184.158C327.857 176.905 333.303 174.147 335.675 175.217C336.628 175.652 337.012 176.638 336.728 177.958C336.461 179.211 335.993 180.364 335.375 181.802C334.406 184.125 333.203 187.016 332.134 192.08C332.1 192.263 332.05 192.497 332 192.781C331.499 195.338 330.346 201.338 327.155 206.502C327.088 206.619 326.955 206.686 326.821 206.686Z" fill="#983C80"/>
<path d="M268.632 264.293C268.698 264.326 268.765 264.343 268.849 264.343C268.999 264.343 269.133 264.276 269.216 264.142C272.808 257.992 275.398 254.148 276.951 251.976C276.751 251.809 276.534 251.625 276.317 251.424C274.763 253.597 272.173 257.457 268.498 263.724C268.364 263.908 268.431 264.176 268.632 264.293Z" fill="#983C80"/>
<path d="M249.72 295.26L250.037 222.846C250.689 223.465 257.906 232.757 270.603 245.959C269.935 247.965 268.498 250.722 266.376 257.608C260.629 276.208 256.736 286.687 249.72 295.26Z" fill="#983C80"/>
<path d="M99.6099 256.989C99.4762 256.989 99.3426 256.922 99.259 256.805C98.8247 256.154 88.4665 240.628 89.0011 233.475C89.1682 231.303 90.0537 229.782 91.6241 228.913C94.4642 227.359 98.5407 228.529 99.9774 229.297C100.178 229.414 100.261 229.665 100.145 229.866C100.028 230.066 99.777 230.15 99.5765 230.033C98.123 229.247 94.4141 228.328 92.0251 229.648C90.7052 230.367 89.9701 231.67 89.8365 233.542C89.3186 240.411 99.8438 256.187 99.9607 256.338C100.094 256.521 100.044 256.789 99.8438 256.922C99.777 256.973 99.6934 256.989 99.6099 256.989V256.989Z" fill="#219DA7"/>
<path d="M156.83 199.834C156.83 199.834 141.293 212.034 101.364 251.976C91.6742 240.779 83.0535 230.517 76.9723 221.225C67.7836 207.187 64.3086 196.308 58.9291 183.79C52.7476 169.418 29.3582 163.569 21.8402 163.569C17.4798 163.569 14.4893 167.747 33.702 176.771C31.0289 176.103 28.69 179.445 29.6924 182.955C27.0193 183.122 25.3486 187.467 27.8546 190.642C25.666 190.676 21.6731 194.653 30.6948 201.004C39.2152 258.326 64.2752 306.089 99.0084 305.906C158.334 305.622 186.234 190.977 156.83 199.834Z" fill="#F1AA9F"/>
<path d="M110.803 262.504L102.032 251.324C101.832 251.524 101.631 251.725 101.431 251.926L110.135 263.022C110.219 263.123 110.336 263.19 110.469 263.19C110.553 263.19 110.653 263.156 110.72 263.106C110.904 262.939 110.937 262.671 110.803 262.504Z" fill="#983C80"/>
<path d="M56.9242 184.709C51.8788 180.899 46.5828 180.598 43.1746 181.668C43.1746 181.668 43.1746 181.668 43.1579 181.668C39.85 180.064 37.7951 178.961 36.1411 178.091C35.2389 177.607 34.4203 177.189 33.6017 176.771C33.0337 176.654 32.4823 176.704 31.9811 176.905C33.2843 177.523 34.4036 178.108 35.7569 178.827C37.2939 179.646 39.1984 180.648 42.1054 182.086C41.504 182.37 40.9693 182.687 40.5684 183.038C39.282 184.141 38.9311 185.495 39.6161 186.748C40.1841 187.818 41.3202 188.202 42.64 188.67C43.3083 188.904 44.01 189.138 44.7283 189.506C43.8095 189.84 41.6042 190.158 37.7115 187.968C37.0767 187.534 36.4919 187.166 36.0242 186.882L35.7401 186.698C34.6208 185.996 32.0981 184.425 29.7257 182.971C29.3415 182.988 28.9906 183.105 28.6565 183.289C31.1792 184.843 34.0862 186.648 35.3058 187.417L35.5898 187.601C35.974 187.835 36.4752 188.152 37.0266 188.52C37.06 188.553 37.0934 188.587 37.1268 188.603C37.1769 188.637 37.2103 188.654 37.2605 188.67C39.0147 189.874 41.1364 191.578 41.4872 193.249C41.6042 193.834 41.504 194.352 41.1698 194.854C40.8691 195.305 40.4013 195.572 39.7665 195.673C36.9597 196.107 31.7974 193.233 27.8713 190.659C27.5372 190.676 27.1529 190.776 26.8021 190.96C28.4393 192.046 30.3272 193.216 32.215 194.219L32.2317 194.235C33.7186 195.472 35.2557 197.979 35.1888 199.734C35.1721 200.402 34.9215 200.904 34.4203 201.254C33.5182 201.906 32.0313 201.555 30.5945 200.904L30.7448 201.004C30.795 201.305 30.8451 201.622 30.8785 201.923C31.6637 202.224 32.4656 202.424 33.2174 202.424C33.8356 202.424 34.4203 202.274 34.9215 201.923C35.6232 201.422 36.0075 200.67 36.0409 199.75C36.091 198.33 35.3058 196.575 34.27 195.188C36.091 195.99 37.8285 196.525 39.2151 196.525C39.4657 196.525 39.6996 196.508 39.9168 196.475C40.7856 196.341 41.4371 195.94 41.8882 195.305C42.356 194.62 42.5064 193.868 42.3393 193.066C42.1221 192.013 41.3536 190.977 40.4013 190.057C41.5541 190.442 42.5064 190.575 43.2749 190.575C44.5947 190.575 45.3632 190.191 45.6639 189.991C47.0339 190.86 48.4038 192.23 49.5065 194.753C49.6234 195.004 49.7571 195.372 49.9241 195.79C50.9432 198.33 52.8311 203.059 55.4708 205.115C55.5543 205.182 55.6378 205.199 55.7214 205.199C55.8383 205.199 55.972 205.148 56.0555 205.031C56.1891 204.848 56.1724 204.58 55.9887 204.446C53.5328 202.541 51.6282 197.762 50.7093 195.472C50.5256 195.021 50.3919 194.67 50.275 194.403C48.1866 189.69 45.1627 188.637 42.9574 187.868C41.7546 187.45 40.819 187.133 40.4013 186.347C39.7498 185.127 40.6018 184.141 41.1698 183.657C42.5231 182.487 44.8787 181.868 47.4348 181.969C49.6234 182.052 52.9815 182.721 56.4899 185.378C56.6736 185.512 56.9409 185.478 57.0746 185.294C57.1414 185.111 57.108 184.843 56.9242 184.709V184.709Z" fill="#983C80"/>
<path d="M135.446 289.745C127.761 285.066 120.911 277.211 114.228 262.337C111.271 255.769 109.55 252.143 106.376 246.962C110.219 242.951 131.018 222.395 136.448 220.557C145.303 217.515 135.446 289.745 135.446 289.745Z" fill="#983C80"/>
<path d="M175.759 202.357C167.021 194.82 157.833 196.324 145.47 206.017C135.329 213.972 112.558 227.409 93.679 228.245C93.679 228.245 111.054 229.916 117.235 255.318C122.598 277.378 127.426 281.389 135.446 289.745C138.787 286.737 144.133 280.219 144.133 280.219C140.959 291.249 138.119 301.611 134.443 311.972C174.038 329.186 224.96 322.618 237.958 314.095C241.199 311.972 244.875 309.198 241.533 301.444C236.855 290.581 234.516 280.553 234.516 280.386C236.02 282.726 242.536 290.079 249.719 295.26C252.844 291.099 259.393 268.554 260.963 258.778C264.338 237.988 273.126 226.924 280.393 225.37C265.073 225.103 245.91 212.803 235.519 204.747C225.495 196.976 216.507 196.792 211.361 201.371C206.349 209.961 184.797 214.39 175.759 202.357V202.357Z" fill="#219DA7"/>
<path d="M227.166 244.79C226.932 244.84 226.781 245.057 226.831 245.274C227.049 246.427 231.058 267.785 234.483 280.403C234.884 280.955 235.335 281.573 235.853 282.208C232.311 269.925 227.7 245.408 227.633 245.107C227.617 244.907 227.399 244.756 227.166 244.79V244.79Z" fill="#6CDCD8"/>
<path d="M153.004 244.806C152.787 244.756 152.553 244.89 152.503 245.124C152.436 245.425 146.689 269.44 142.747 281.89C143.599 280.888 144.133 280.236 144.133 280.236V280.269C147.992 267.602 153.038 246.477 153.305 245.324C153.355 245.074 153.222 244.856 153.004 244.806Z" fill="#6CDCD8"/>
</g>
<g clip-path="url(#clip2_9_176)">
<path d="M239.731 322.852C237.723 322.852 235.714 322.581 233.739 322.022C224.117 319.313 215.609 310.119 209.161 295.422C202.325 279.861 197.986 258.391 196.602 233.315C187.115 228.472 167.855 218.465 171.619 197.418C172.109 194.709 172.818 192.136 173.493 189.647C175.046 184.008 176.649 178.184 175.839 170.276C175.822 170.039 175.991 169.836 176.211 169.819C176.447 169.802 176.649 169.971 176.666 170.192C177.493 178.251 175.873 184.161 174.303 189.867C173.628 192.339 172.919 194.896 172.446 197.571C168.766 218.16 187.976 227.964 197.21 232.671C197.345 232.739 197.429 232.874 197.446 233.027C198.813 258.12 203.135 279.573 209.954 295.083C216.301 309.543 224.623 318.568 233.992 321.209C245.977 324.579 258.924 317.18 270.437 300.366C280.261 286.007 292.77 274.443 304.856 263.251C325.332 244.304 343.006 227.947 339.41 204.835C339.376 204.598 339.528 204.395 339.765 204.344C340.001 204.31 340.203 204.462 340.254 204.699C341.925 215.485 339.258 225.458 331.848 236.075C325.247 245.54 315.626 254.446 305.43 263.86C293.377 275.019 280.903 286.549 271.129 300.823C261.254 315.232 250.315 322.852 239.731 322.852V322.852Z" fill="#983C80"/>
<path d="M197.294 233.518L196.72 232.891C206.139 224.07 220.758 204.699 212.74 173.984L213.55 173.764C217.281 188.089 216.588 201.448 211.457 213.487C208.3 220.937 203.523 227.676 197.294 233.518V233.518Z" fill="#983C80"/>
<path d="M175.417 172.935L177.46 172.799C177.645 172.782 177.814 172.935 177.814 173.121L177.882 174.137C177.899 174.323 177.747 174.492 177.561 174.492L175.518 174.628C175.333 174.645 175.164 174.492 175.164 174.306L175.096 173.29C175.096 173.121 175.232 172.952 175.417 172.935Z" fill="#A4D3F2"/>
<path d="M170.589 143.879C170.589 143.879 174.387 147.147 176.498 149.128C174.978 132.027 188.145 116.788 202.493 120.005C201.818 118.142 196.079 114.756 188.82 116.11C181.224 117.465 169.577 127.793 170.589 143.879V143.879Z" fill="#A4D3F2"/>
<path d="M178.789 173.017C187.169 171.413 192.505 162.457 190.708 153.014C188.911 143.571 180.661 137.217 172.282 138.821C163.902 140.425 158.566 149.381 160.363 158.824C162.16 168.267 170.41 174.622 178.789 173.017Z" fill="#66AFEF"/>
<path d="M177.501 166.248C182.565 165.278 185.791 159.868 184.705 154.164C183.62 148.459 178.634 144.621 173.57 145.591C168.506 146.56 165.28 151.971 166.366 157.675C167.451 163.379 172.437 167.218 177.501 166.248Z" fill="#A4D3F2"/>
<path d="M340.76 205.207L339.089 205.444C338.904 205.478 338.735 205.343 338.701 205.156L338.6 204.462L340.946 204.124L341.047 204.818C341.064 205.004 340.946 205.173 340.76 205.207V205.207Z" fill="#F73E39"/>
<path d="M323.897 159.558L342.82 156.798C343.968 156.629 345.014 157.425 345.183 158.576L351.243 200.517C351.412 201.668 350.619 202.718 349.471 202.888L330.548 205.648C329.4 205.817 328.353 205.021 328.185 203.87L322.124 161.929C321.973 160.794 322.749 159.728 323.897 159.558V159.558Z" fill="#F54F46"/>
<path d="M196.045 231.96L197.733 231.842C197.919 231.825 198.088 231.977 198.088 232.163L198.223 234.043C198.239 234.229 198.088 234.398 197.902 234.398L196.214 234.517C196.028 234.534 195.859 234.381 195.859 234.195L195.724 232.316C195.724 232.129 195.859 231.977 196.045 231.96Z" fill="#66AFEF"/>
</g>
<g clip-path="url(#clip3_9_176)">
<path d="M347.83 198.814C347.83 198.814 345.212 199.223 344.829 197.107C344.612 195.929 344.995 193.864 348.831 190.109C345.329 190.109 343.561 189.495 343.328 188.061C343.128 186.798 343.661 185.33 346.997 182.599C342.994 182.599 341.593 181.541 341.493 180.21C341.326 177.991 344.829 175.772 345.496 174.407C341.827 174.407 340.859 173.639 340.826 172.529C340.776 170.225 344.045 167.938 344.662 167.75C349.498 166.214 351.166 169.969 348.181 173.877C353.584 173.109 353.717 178.861 350.332 181.917C354.334 180.892 355.669 186.696 351.666 189.597C353.751 189.597 356.502 195.571 347.83 198.814V198.814Z" fill="#F1AA9F"/>
<path d="M352.934 188.368C348.514 189.648 344.528 190.16 343.795 188.471C343.511 187.822 343.528 187.191 343.828 186.542C344.745 184.477 348.164 182.787 350.349 181.899L350.365 181.882C350.782 181.507 351.132 181.097 351.449 180.654C351.483 180.619 351.499 180.585 351.516 180.534C351.182 180.654 350.699 180.824 350.115 181.063C348.331 181.592 346.53 181.968 345.045 181.968C344.295 181.968 343.628 181.865 343.094 181.643C342.527 181.405 342.16 181.012 341.977 180.483C341.243 178.366 344.695 175.789 348.181 173.878H348.164C348.181 173.843 348.197 173.826 348.214 173.792C348.514 173.4 348.748 173.007 348.948 172.632C348.981 172.58 348.998 172.529 349.031 172.461C348.764 172.597 348.481 172.751 348.197 172.905C346.563 173.468 344.779 173.946 343.411 173.946C342.877 173.946 342.41 173.878 342.044 173.707C341.643 173.519 341.41 173.246 341.293 172.836C340.743 170.788 344.128 168.433 345.963 167.426C345.462 167.46 344.912 167.562 344.312 167.733C344.028 167.818 343.745 167.921 343.461 168.023C341.777 169.286 339.976 171.13 340.493 173.058C340.676 173.707 341.076 174.185 341.693 174.475C342.16 174.697 342.744 174.782 343.394 174.782C343.995 174.782 344.662 174.697 345.346 174.56C341.96 176.847 340.559 178.93 341.176 180.773C341.426 181.541 341.96 182.104 342.761 182.446C343.394 182.719 344.161 182.838 345.012 182.838C345.562 182.838 346.163 182.787 346.78 182.702C345.179 183.64 343.678 184.835 343.061 186.218C342.677 187.088 342.661 187.976 343.027 188.846C343.478 189.904 344.645 190.451 346.513 190.451C347.13 190.451 347.83 190.399 348.614 190.28C347.247 191.202 346.179 192.243 345.245 193.557C343.961 195.349 343.778 197.397 344.795 198.558C345.045 198.848 345.546 199.241 346.396 199.36H346.513C346.68 199.36 349.014 199.36 351.182 197.141C351.216 197.107 351.249 197.056 351.283 197.022C348.514 198.643 346.329 199.019 345.429 197.978C344.695 197.141 344.895 195.503 345.929 194.069C347.263 192.226 348.864 190.928 351.283 189.768C351.299 189.768 351.299 189.751 351.316 189.751C351.449 189.717 351.599 189.682 351.75 189.648C351.733 189.648 351.716 189.648 351.699 189.648C352.166 189.222 352.583 188.812 352.934 188.368V188.368Z" fill="#983C80"/>
</g>
<g clip-path="url(#clip4_9_176)">
<path d="M321.874 184.798C329.116 174.716 336.869 173.701 335.761 178.157C335.045 180.996 332.37 184.66 330.99 192.626C330.666 194.449 330.308 198.802 326.389 206.716" fill="#F1AA9F"/>
<path d="M325.963 207.748C325.895 207.748 325.81 207.731 325.742 207.679C325.537 207.559 325.486 207.284 325.606 207.094C328.775 201.916 329.934 195.86 330.428 193.262C330.479 192.97 330.53 192.729 330.564 192.54C331.672 187.241 332.984 184.093 333.921 181.804C334.517 180.359 334.994 179.207 335.25 178.002C335.386 177.349 335.403 176.488 334.653 176.144C332.898 175.318 327.719 177.607 322.215 185.056C322.079 185.245 321.806 185.28 321.618 185.142C321.431 185.004 321.397 184.729 321.533 184.54C327.037 177.073 332.592 174.235 335.011 175.336C335.983 175.783 336.374 176.798 336.085 178.157C335.812 179.447 335.335 180.635 334.705 182.114C333.716 184.505 332.489 187.482 331.399 192.695C331.365 192.884 331.314 193.125 331.263 193.417C330.751 196.049 329.576 202.226 326.321 207.542C326.236 207.679 326.1 207.748 325.963 207.748V207.748Z" fill="#983C80"/>
</g>
<g clip-path="url(#clip5_9_176)">
<path d="M113.467 111.337C113.419 111.297 113.363 111.267 113.304 111.249C113.244 111.23 113.182 111.224 113.12 111.23C113.058 111.235 112.998 111.253 112.943 111.283C112.888 111.312 112.839 111.351 112.8 111.399L105.593 120.137C105.475 120.279 105.409 120.456 105.404 120.641C105.4 120.825 105.458 121.006 105.569 121.154C106.488 122.381 111.029 128.449 113.055 131.153C111.409 131.038 109.299 132.05 107.632 133.919C105.319 136.513 104.737 139.772 106.331 141.2C107.925 142.628 111.091 141.684 113.402 139.09C115.671 136.545 116.12 134.002 114.786 131.891C113.047 129.14 107.744 122.479 106.387 120.666L113.531 112.006C113.57 111.958 113.6 111.902 113.618 111.843C113.636 111.783 113.643 111.72 113.637 111.658C113.631 111.596 113.613 111.536 113.583 111.481C113.554 111.426 113.515 111.377 113.467 111.337V111.337Z" fill="#9B3C82"/>
</g>
<g clip-path="url(#clip6_9_176)">
<path d="M238.01 52.1682C237.994 52.1104 237.968 52.0562 237.931 52.0088C237.894 51.9613 237.849 51.9215 237.797 51.8917C237.745 51.8619 237.687 51.8426 237.628 51.8349C237.568 51.8272 237.508 51.8313 237.45 51.847L226.914 54.6885C226.743 54.7342 226.592 54.8364 226.486 54.9785C226.38 55.1205 226.325 55.2942 226.33 55.4713C226.371 56.9424 226.572 64.2127 226.663 67.4534C225.431 66.4499 223.206 66.0712 220.854 66.6101C217.59 67.3572 215.319 69.5861 215.779 71.5884C216.24 73.5907 219.259 74.6081 222.522 73.8599C225.725 73.1265 227.493 71.3845 227.616 68.9923C227.777 65.8733 227.306 57.7157 227.245 55.5435L237.689 52.7271C237.746 52.7115 237.801 52.6847 237.848 52.6482C237.896 52.6116 237.935 52.5661 237.965 52.5142C237.995 52.4623 238.015 52.405 238.022 52.3457C238.03 52.2863 238.026 52.226 238.01 52.1682V52.1682Z" fill="#9B3C82"/>
</g>
<g clip-path="url(#clip7_9_176)">
<path d="M282.213 107.92C282.243 107.866 282.26 107.806 282.264 107.745C282.268 107.684 282.258 107.622 282.235 107.565C282.212 107.508 282.176 107.457 282.13 107.417C282.085 107.376 282.03 107.346 281.971 107.329L265.772 102.718C265.622 102.675 265.463 102.683 265.319 102.742C265.176 102.801 265.056 102.907 264.979 103.043C264.343 104.166 261.119 109.854 259.684 112.385C259.208 111.05 257.684 109.738 255.639 109.07C252.802 108.143 250.036 108.807 249.462 110.553C248.887 112.299 250.721 114.466 253.559 115.392C256.396 116.318 258.789 115.582 259.736 113.909C259.759 113.867 264.815 104.985 265.64 103.528L281.25 107.971L275.761 117.703C275.288 116.366 273.763 115.05 271.714 114.38C268.877 113.454 266.111 114.118 265.537 115.864C264.963 117.61 266.745 119.81 269.582 120.737C272.021 121.534 274.14 121.416 275.445 119.887C276.581 118.564 280.565 110.936 282.213 107.92Z" fill="#9B3C82"/>
</g>
<defs>
<clipPath id="clip0_9_176">
<rect width="24.2139" height="33.338" fill="white" transform="translate(196.493 134.227) rotate(-14.9307)"/>
</clipPath>
<clipPath id="clip1_9_176">
<rect width="343.556" height="207.748" fill="white" transform="translate(18.5991 116.858)"/>
</clipPath>
<clipPath id="clip2_9_176">
<rect width="191.255" height="207.046" fill="white" transform="translate(160.022 115.806)"/>
</clipPath>
<clipPath id="clip3_9_176">
<rect width="16.4935" height="31.9343" fill="white" transform="translate(337.591 167.392)"/>
</clipPath>
<clipPath id="clip4_9_176">
<rect width="14.7389" height="32.6361" fill="white" transform="translate(321.448 175.112)"/>
</clipPath>
<clipPath id="clip5_9_176">
<rect width="19.6519" height="25.9685" fill="white" transform="translate(95.6924 119.623) rotate(-25.8052)"/>
</clipPath>
<clipPath id="clip6_9_176">
<rect width="18.95" height="24.9157" fill="white" transform="translate(219.404 48.7924) rotate(9.47632)"/>
</clipPath>
<clipPath id="clip7_9_176">
<rect width="25.9685" height="25.2667" fill="white" transform="translate(264.702 92.5009) rotate(40.558)"/>
</clipPath>
</defs>
</svg>
