<svg fill="#000000" xmlns="http://www.w3.org/2000/svg"  viewBox="0 0 26 26" width="26px" height="26px"><path d="M 5 0 L 5 22 L 9 22 L 9 20.53125 L 10.96875 21.71875 C 11.28125 21.90625 11.636719 22 12 22 L 16 22 C 16.527344 21.996094 17.035156 21.78125 17.40625 21.40625 L 20.40625 18.40625 C 20.78125 18.035156 20.996094 17.527344 21 17 L 21 9 C 20.996094 8.472656 20.78125 7.964844 20.40625 7.59375 L 17.40625 4.59375 C 17.035156 4.21875 16.527344 4.003906 16 4 L 12 4 C 11.9375 3.996094 11.875 3.996094 11.8125 4 C 11.515625 4.027344 11.226563 4.125 10.96875 4.28125 L 9 5.46875 L 9 0 Z M 12.5625 8 L 15.1875 8 L 17 9.8125 L 17 16.1875 L 15.1875 18 L 12.5625 18 L 9 15.875 L 9 10.125 Z"/></svg>