<svg width="100" height="100" viewBox="0 0 100 100" fill="none" xmlns="http://www.w3.org/2000/svg">
<path d="M76.5039 81.8555C76.3086 81.1914 76.0547 80.4687 75.4492 80.0586C74.7461 79.5898 73.5938 79.7656 72.8125 79.8828C71.6797 80.0586 70.5664 80.4492 69.4336 80.5469C67.9102 80.6641 66.3867 80.7812 64.8633 80.9375C61.6602 81.2891 58.4961 81.582 55.2734 81.6406C48.9063 81.7969 42.5391 81.7969 36.1719 81.9727C30.1562 82.1484 24.1602 82.3242 18.1445 82.4414C18.1445 82.4805 18.1641 82.5391 18.1641 82.5781C18.1836 82.6562 18.1836 82.7148 18.1641 82.793C18.5547 85.2539 18.457 87.793 18.4375 90.293C23.3789 90.3711 28.3008 90.1172 33.2422 89.9023C38.2031 89.6875 43.1641 89.7266 48.125 89.6484C53.0469 89.5703 57.9688 89.375 62.8516 88.8867C67.3242 88.457 71.7383 87.8711 76.2305 87.7539C76.3672 87.5 76.582 87.2852 76.8164 87.168C76.8945 85.4492 76.9922 83.5547 76.5039 81.8555Z" fill="#FEBF10"/>
<path d="M52.4609 64.0039C52.2266 62.0508 51.7188 60.0195 50.5273 58.4375C49.3359 56.8164 47.2852 55.5078 45.2148 56.2695C43.1445 57.0313 41.5234 59.1406 40.9375 61.25C40.2148 63.7891 40.5273 66.4453 40.0391 69.0234C40 69.1797 39.9609 69.3164 39.8828 69.4336C40.2148 73.1055 45.3125 75.1758 48.4961 73.7891C52.0313 72.2266 52.8516 67.4219 52.4609 64.0039Z" fill="#F6851F"/>
<path d="M48.0273 18.1445C47.7148 15.6249 45.4883 13.457 42.8516 13.6718C39.8633 13.9257 37.9102 16.7773 38.3203 19.707C38.3398 19.8437 38.3398 19.9609 38.3203 20.0781C38.457 20.1171 38.6133 20.2148 38.75 20.3515C40.2148 21.8749 42.4219 23.0664 44.5898 22.871C46.9727 22.6757 48.3008 20.4882 48.0273 18.1445ZM75.8984 36.7773C74.4922 38.9648 73.0273 41.0937 71.4453 43.164C69.7461 45.371 68.1836 47.6757 66.7188 50.0585C65.625 51.8359 64.0234 53.7109 63.4961 55.7617C63.3203 56.4843 62.5977 56.6992 62.0508 56.5234C61.4844 56.7187 60.7617 56.4453 60.5859 55.6445C59.375 49.6093 56.4648 44.082 54.5117 38.2812C53.5352 35.3515 52.3633 32.4218 50.918 29.6874C50.2344 28.3984 49.4727 27.3046 48.6133 26.1523C48.1445 25.5078 47.7539 24.8632 47.4609 24.1601C46.8945 24.5312 46.25 24.8046 45.5078 24.9414C44.082 25.2148 42.6172 25.039 41.2305 24.5312C41.1914 24.5507 41.1328 24.5898 41.0937 24.6093C41.0352 24.7265 40.9961 24.8437 40.957 24.9804C40.8789 25.1953 40.8203 25.4296 40.7422 25.6445C40.5273 26.289 40.3125 26.9531 40.0781 27.5976C39.6094 28.9648 39.1016 30.3124 38.4961 31.621C37.2656 34.2773 36.1328 36.9921 35.0586 39.7265C33.1055 44.6874 31.4453 49.7656 29.4727 54.707C29.5703 55.0195 29.5508 55.371 29.2773 55.7031C29.0625 55.957 28.9062 56.2304 28.6914 56.4843C28.5742 56.621 28.457 56.6992 28.3398 56.7773C28.0859 57.2265 27.5781 57.4804 27.0117 57.1289C25.0977 55.9375 23.5938 54.2382 22.207 52.4804C20.7812 50.664 19.4141 48.8476 17.8711 47.1484C16.9531 46.0937 16.0742 45.1171 15.1562 44.1406C14.2383 43.164 13.2031 42.2851 12.3047 41.3085C11.2109 40.0781 10.1758 38.789 9.10156 37.5195C9.23828 38.5742 9.45313 39.6484 9.62891 40.6835C9.96094 42.5976 10.1563 44.5312 10.4102 46.4648C10.918 50.5468 11.6992 54.5507 12.5781 58.5546C13.457 62.5976 14.375 66.6601 15.5078 70.6445C16.0938 72.6757 16.7773 74.6679 17.1875 76.7382C17.4219 77.9296 17.5977 79.121 17.793 80.3125C20.6445 80.2539 23.5156 80.1757 26.3672 80.0976C32.793 79.9218 39.2188 79.707 45.6445 79.5703C48.7891 79.5117 51.9531 79.5507 55.0977 79.4726C58.3203 79.3945 61.4844 79.082 64.6875 78.7695C66.2695 78.6132 67.9102 78.6132 69.4727 78.3398C70.5273 78.164 71.582 77.8515 72.6562 77.7148C73.2031 77.6367 73.7891 77.5976 74.3555 77.6367C74.4727 77.3242 74.707 77.0703 75 76.9531C75.2148 75.7421 75.1367 74.4335 75.0977 73.2421C75.0391 71.4062 75.0586 69.5898 75.1562 67.7539C75.3711 63.5156 75.7812 59.2968 76.2305 55.0781C76.6797 50.7812 77.1289 46.5234 77.9688 42.2851C78.5938 39.1015 79.2578 35.8789 79.375 32.6367C78.1445 33.9648 76.875 35.2734 75.8984 36.7773ZM54.375 68.6914C53.457 72.7539 50.7617 76.3281 46.2695 76.3281C42.3437 76.3281 37.6172 73.4375 37.7148 69.082C37.7148 68.8085 37.8125 68.5742 37.9687 68.3984C38.3008 66.4062 38.1836 64.3945 38.4766 62.4023C38.7695 60.5273 39.4922 58.6914 40.6641 57.1679C41.9922 55.4296 44.043 53.8671 46.3281 53.8867C48.5938 53.9062 50.6055 55.0585 51.9922 56.8164C54.4922 59.9999 55.2734 64.8242 54.375 68.6914Z" fill="#FEBF10"/>
<path d="M78.3203 55.4688C78.7695 51.1719 79.2188 46.9141 80.0586 42.6758C80.8789 38.5157 81.7188 34.3164 81.4649 30.0391C81.4453 29.7071 81.3086 29.4532 81.0938 29.2969C80.7031 28.7891 79.7852 28.6719 79.3945 29.2188C77.832 31.3477 75.8789 33.1446 74.3164 35.2735C73.457 36.4258 72.7539 37.6954 71.9336 38.8672C71.1133 40.0586 70.2344 41.1719 69.3555 42.3243C67.7149 44.4922 66.2109 46.7579 64.7656 49.0625C63.9258 50.4102 62.9297 51.7579 62.1875 53.2032C60.8398 48.0469 58.5352 43.2032 56.7383 38.1836C55.7422 35.3907 54.707 32.6368 53.4375 29.961C52.8125 28.6524 52.168 27.1485 51.25 25.9961C50.5078 25.0782 49.4727 24.0039 49.2383 22.793C49.2188 22.6563 49.1602 22.5391 49.1016 22.4219C50.0586 20.9375 50.4102 19.0235 50.0391 17.2071C49.2969 13.6524 46.0156 11.2305 42.4219 11.5235C38.418 11.8555 35.625 15.9766 36.1523 19.8438C36.2305 20.3907 36.6211 20.7032 37.0508 20.7813C36.9141 21.1524 36.9531 21.5821 37.2852 21.9532C37.832 22.5196 38.4766 23.0469 39.1797 23.4961C39.1406 23.5743 39.1016 23.6719 39.0625 23.75C38.5547 25 38.2031 26.3282 37.7539 27.5977C36.6406 30.6836 35.1563 33.6133 33.9063 36.6602C31.4844 42.5782 29.5508 48.6914 27.1289 54.6094C25.7422 53.5352 24.6289 52.1094 23.5742 50.7422C22.168 48.9258 20.7813 47.168 19.2383 45.4688C17.4414 43.4766 15.6445 41.5039 13.6914 39.668C12.7344 38.7696 11.9531 37.5977 11.1133 36.6016C10.3125 35.6446 9.49219 34.7071 8.61329 33.8086C8.08594 33.2618 6.89454 33.6133 6.85547 34.4141C6.73829 36.2305 6.97266 37.9883 7.28516 39.7852C7.63672 41.8164 7.91016 43.8282 8.16407 45.8789C8.65235 50.0196 9.41407 54.0625 10.293 58.1446C11.1719 62.2071 12.0703 66.25 13.1641 70.2539C13.7305 72.3243 14.4531 74.336 14.9414 76.4258C15.3125 78.0079 15.5078 79.6094 15.7617 81.211C15.7227 81.3868 15.7422 81.5625 15.7813 81.7383C15.7813 81.7383 15.7813 81.7383 15.7813 81.7579C15.6445 81.9922 15.5859 82.2852 15.6836 82.6172C15.7813 82.9102 15.918 83.125 16.0938 83.3008C16.4844 85.8399 16.3086 88.5157 16.2891 91.0547C16.2891 91.6602 16.6992 91.9727 17.168 92.0118C17.3633 92.2461 17.6367 92.4219 18.0273 92.4414C23.0273 92.5586 28.0273 92.2852 33.0078 92.0704C37.9688 91.8555 42.9297 91.875 47.8906 91.7969C52.8125 91.7188 57.7344 91.5235 62.6367 91.0743C67.4219 90.6446 72.1289 89.961 76.9531 89.9024C77.4024 90.918 79.0625 90.4688 78.9844 89.336C78.7891 86.0743 79.5899 82.2852 77.7149 79.3555C77.4609 78.9454 77.1484 78.6329 76.7969 78.3985C77.6953 75.4688 77.0899 72.1485 77.1875 69.1211C77.4024 64.5704 77.8516 60.0196 78.3203 55.4688ZM38.7305 20.3516C38.5938 20.2149 38.457 20.1172 38.3008 20.0782C38.3203 19.961 38.3203 19.8438 38.3008 19.7071C37.8906 16.7774 39.8438 13.9258 42.832 13.6719C45.4688 13.4571 47.6953 15.625 48.0078 18.1446C48.3008 20.4883 46.9531 22.6563 44.5508 22.8711C42.3828 23.0664 40.1953 21.875 38.7305 20.3516ZM76.8555 87.2071C76.6016 87.3047 76.3867 87.5196 76.2695 87.793C71.7774 87.8907 67.3633 88.4766 62.8906 88.9258C57.9883 89.3946 53.0664 89.5899 48.1641 89.6875C43.2031 89.7852 38.2422 89.7461 33.2813 89.9414C28.3594 90.1563 23.418 90.4102 18.4766 90.3321C18.4961 87.8321 18.5938 85.293 18.2031 82.8321C18.2031 82.754 18.2031 82.6954 18.2031 82.6172C18.2031 82.5782 18.1836 82.5196 18.1836 82.4805C24.1992 82.3633 30.1953 82.168 36.2109 82.0118C42.5781 81.836 48.9453 81.8165 55.3125 81.6797C58.5352 81.6016 61.6992 81.3086 64.9023 80.9766C66.4258 80.8204 67.9492 80.7032 69.4727 80.586C70.6055 80.5079 71.7383 80.1172 72.8516 79.9219C73.6328 79.8047 74.7656 79.629 75.4883 80.0977C76.0938 80.5079 76.3477 81.2305 76.543 81.8946C76.9922 83.5547 76.8945 85.4493 76.8555 87.2071ZM76.2305 55.0586C75.7813 59.2774 75.3906 63.4961 75.1563 67.7344C75.0586 69.5704 75.0391 71.3868 75.0977 73.2227C75.1367 74.4141 75.2344 75.7227 75 76.9336C74.707 77.0508 74.4727 77.3243 74.3555 77.6172C73.7891 77.5977 73.2031 77.6172 72.6563 77.6954C71.582 77.8516 70.5469 78.1446 69.4727 78.3204C67.9102 78.5743 66.2695 78.5743 64.6875 78.75C61.4844 79.0821 58.3203 79.375 55.0977 79.4532C51.9531 79.5313 48.7891 79.4922 45.6445 79.5508C39.2188 79.6875 32.793 79.8829 26.3672 80.0782C23.5156 80.1563 20.6445 80.2344 17.793 80.293C17.5977 79.1016 17.4219 77.8907 17.1875 76.7188C16.7773 74.6485 16.0938 72.6563 15.5078 70.625C14.375 66.6407 13.457 62.5782 12.5781 58.5352C11.6992 54.5118 10.8984 50.5274 10.4102 46.4454C10.1758 44.5118 9.98047 42.5782 9.62891 40.6641C9.45313 39.6289 9.23829 38.5743 9.10157 37.5C10.1758 38.75 11.1914 40.0586 12.3047 41.2891C13.1836 42.2852 14.2383 43.1641 15.1563 44.1211C16.0742 45.0977 16.9531 46.0743 17.8516 47.0704C19.3945 48.7891 20.7813 50.586 22.1875 52.4024C23.5742 54.1797 25.0586 55.8594 26.9922 57.0508C27.5586 57.4024 28.0664 57.1485 28.3203 56.6993C28.4375 56.6407 28.5547 56.543 28.6719 56.4063C28.8867 56.1524 29.043 55.8789 29.2578 55.625C29.5313 55.293 29.5703 54.9414 29.4531 54.6289C31.4258 49.6875 33.0859 44.6094 35.0391 39.6485C36.1133 36.9141 37.2461 34.2188 38.4766 31.543C39.082 30.2344 39.5703 28.8868 40.0586 27.5196C40.293 26.875 40.5078 26.2305 40.7227 25.5664C40.8008 25.3516 40.8594 25.1172 40.9375 24.9024C40.9766 24.7852 41.0352 24.6485 41.0742 24.5313C41.1328 24.5118 41.1719 24.4922 41.2109 24.4532C42.5977 24.961 44.0625 25.1368 45.4883 24.8633C46.2109 24.7266 46.875 24.4532 47.4414 24.0821C47.7344 24.7852 48.125 25.4297 48.5938 26.0743C49.4336 27.2461 50.2148 28.3399 50.8984 29.6094C52.3438 32.3438 53.5156 35.2735 54.4922 38.2032C56.4453 44.0039 59.375 49.5313 60.5664 55.5664C60.7227 56.3672 61.4649 56.6602 62.0313 56.4454C62.5781 56.6211 63.3008 56.4063 63.4766 55.6836C64.0039 53.6329 65.6055 51.7579 66.6992 49.9805C68.1641 47.5977 69.7461 45.3125 71.4258 43.086C73.0078 41.0157 74.4727 38.8868 75.8789 36.6993C76.8359 35.1954 78.125 33.9063 79.3359 32.5586C79.2188 35.8008 78.5547 39.0235 77.9297 42.2071C77.1094 46.5235 76.6797 50.7813 76.2305 55.0586Z" fill="#010101"/>
<path d="M52.0117 56.836C50.625 55.0587 48.6133 53.9258 46.3476 53.9063C44.0625 53.8868 42.0117 55.4493 40.6836 57.1876C39.5117 58.711 38.7891 60.5274 38.4961 62.4219C38.1836 64.4141 38.3203 66.4258 37.9883 68.418C37.8516 68.5938 37.7539 68.8282 37.7344 69.1016C37.6172 73.4571 42.3633 76.3477 46.2891 76.3477C50.7812 76.3477 53.4766 72.7735 54.3945 68.711C55.2734 64.8243 54.4922 60.0001 52.0117 56.836ZM48.4961 73.7696C45.332 75.1563 40.2344 73.086 39.8828 69.4141C39.9609 69.2969 40.0195 69.1602 40.0391 69.004C40.5078 66.4258 40.2148 63.7696 40.9375 61.2305C41.5234 59.1407 43.1445 57.0313 45.2148 56.2501C47.2851 55.4883 49.3164 56.7969 50.5273 58.418C51.7187 60.0196 52.2266 62.0508 52.4609 63.9844C52.8516 67.4219 52.0312 72.2266 48.4961 73.7696Z" fill="#010101"/>
</svg>
