<svg width="36" height="30" viewBox="0 0 36 30" fill="none" xmlns="http://www.w3.org/2000/svg">
<path d="M35.9512 3.46674C34.6291 4.05257 33.2088 4.4484 31.7157 4.62732C33.2563 3.70549 34.4089 2.25464 34.9584 0.545487C33.511 1.40522 31.9269 2.01038 30.2749 2.33465C29.164 1.14852 27.6926 0.362337 26.0891 0.0981546C24.4856 -0.166028 22.8397 0.106574 21.407 0.873638C19.9743 1.6407 18.835 2.85931 18.1658 4.34027C17.4967 5.82123 17.3352 7.48167 17.7064 9.06382C14.7736 8.91656 11.9045 8.15427 9.28534 6.82642C6.66618 5.49857 4.3555 3.63483 2.50325 1.35615C1.86992 2.44865 1.50575 3.71532 1.50575 5.06432C1.50504 6.27873 1.8041 7.47454 2.37639 8.54565C2.94868 9.61676 3.77651 10.53 4.78642 11.2045C3.61519 11.1672 2.4698 10.8507 1.44558 10.2814V10.3764C1.44547 12.0797 2.03464 13.7305 3.11312 15.0488C4.19161 16.3671 5.69299 17.2717 7.3625 17.6091C6.27599 17.9031 5.13687 17.9464 4.03117 17.7357C4.5022 19.2013 5.41974 20.4829 6.65533 21.401C7.89092 22.3192 9.3827 22.828 10.9218 22.8562C8.30907 24.9073 5.08232 26.0199 1.76067 26.015C1.17227 26.0151 0.584371 25.9808 0 25.9121C3.37167 28.0799 7.29654 29.2305 11.305 29.226C24.8742 29.226 32.2921 17.9875 32.2921 8.24049C32.2921 7.92382 32.2842 7.60399 32.2699 7.28732C33.7128 6.24386 34.9583 4.95174 35.948 3.47149L35.9512 3.46674Z" fill="white"/>
</svg>
